<svg xmlns="http://www.w3.org/2000/svg" width="48" height="48" viewBox="0 0 24 24">
    <path d="M9.602 3.7c-1.154 1.937-.635 5.227 1.424 9.025.93 1.712.697 3.02.338 3.815-.982 2.178-3.675 2.799-6.525 3.456C2.875 20.45 3 20.866 3 24H1.005L1 22.759c0-2.52.199-3.975 3.178-4.663 3.365-.777 6.688-1.473 5.09-4.418C4.535 4.949 7.918 0 13 0c3.321 0 5.97 2.117 5.97 6.167 0 3.555-1.949 6.833-2.383 7.833h-2.115c.392-1.536 2.499-4.366 2.499-7.842 0-5.153-5.867-4.985-7.369-2.458zM23 19h-3v-3h-2v3h-3v2h3v3h2v-3h3v-2z"/>
</svg>