<svg xmlns="http://www.w3.org/2000/svg" width="32" height="32" viewBox="0 0 24 24">
    <path d="M22 0v14.386C22 16.777 15.352 24 12.189 24H2V0h20zM11.362 22C15.518 22 14 16 14 16s6 1.65 6-2.457V2H4v20h7.362zM12 18v1H7v-1h5zm-5-2h5v1H7v-1zm0-2h10v1H7v-1zm0-2h10v1H7v-1zm3.691-3.174l-2.055.001-.39 1.172L7 10l2.113-5.689 1.086-.001 2.133 5.686-1.246.001-.395-1.171zm4.373-2.015l1.41-.001.001 1.019-1.41.001.001 1.594-1.074.001-.001-1.594-1.414.001-.001-1.019 1.414-.001-.001-1.528h1.074l.001 1.527zM8.952 7.878l1.422-.001-.717-2.129-.705 2.13z"/>
</svg>